<?xml version="1.0" encoding="UTF-8"?>
<svg width="595px" height="475px" viewBox="0 0 595 475" version="1.1" xmlns="http://www.w3.org/2000/svg" xmlns:xlink="http://www.w3.org/1999/xlink">
    <!-- Generator: Sketch 55.2 (78181) - https://sketchapp.com -->
    <title>Group 2</title>
    <desc>Created with Sketch.</desc>
    <g id="Page-1" stroke="none" stroke-width="1" fill="none" fill-rule="evenodd">
        <g id="Group-2">
            <g id="Group">
                <path d="M59.0419427,13.4187652 C287.385117,-71.8787663 798.703003,274.844749 455.0862,433.935808 C324.701886,494.304503 154.070599,499.314145 65.0004912,371.207662 C8.07444687,289.334131 -44.3742841,56.1332267 59.0419427,13.4187652 Z" id="Path" fill="#92DEFF"></path>
                <path d="M331.894588,9.70587176 C299.588244,4.75148458 269.007031,6.52090557 240.666809,13.8839462 C236.317636,15.0141907 232.043955,16.3240497 227.802429,17.7138618 C377.817434,58.2251433 532.879214,168.268263 562.501401,276.808629 C564.557856,274.291229 566.56678,271.751463 568.484834,269.171163 C577.419441,257.157249 584.83722,244.465412 590.454377,231.143176 C625.695119,138.916293 418.187432,22.9479866 331.894588,9.70587176 Z" id="Path" fill="#6778F2"></path>
                <path d="M240.671003,13.8839462 C162.300615,34.2494524 101.08143,97.4035024 67.9183933,179.404371 C-52.7489931,477.778557 432.958682,451.46536 568.489028,269.171163 C544.609818,161.927935 388.812691,51.5012652 240.671003,13.8839462 Z" id="Path" fill="#3B69F2"></path>
            </g>
            <path d="M360.583777,156.341719 C342.036105,156.341719 325.32173,164.363375 313.680639,177.131434 C302.038155,164.363375 285.32378,156.341719 266.776108,156.341719 C231.689723,156.341719 203.144654,185.036067 203.144654,220.307392 L203.144654,298.742138 L236.601287,298.742138 L236.601287,220.307392 C236.601287,203.581445 250.138411,189.974721 266.776108,189.974721 C283.413805,189.974721 296.952323,203.581445 296.952323,220.307392 L296.952323,298.742138 L330.408956,298.742138 L330.408956,220.307392 C330.408956,203.581445 343.94608,189.974721 360.583777,189.974721 C377.221474,189.974721 390.757204,203.581445 390.757204,220.307392 L390.757204,298.742138 L424.213836,298.742138 L424.213836,220.307392 C424.213836,185.036067 395.670162,156.341719 360.583777,156.341719 Z" id="Path" fill="#FFFFFF"></path>
            <path d="M188.058415,108.542977 C201.417924,108.542977 212.106918,119.230466 212.106918,132.589966 C212.106918,145.653402 201.417924,156.341719 188.058415,156.341719 C174.997171,156.341719 164.308176,145.653402 164.308176,132.589966 C164.308176,119.230466 174.997171,108.542977 188.058415,108.542977 Z" id="Path" fill="#FFFFFF"></path>
        </g>
    </g>
</svg>