<?xml version="1.0" encoding="UTF-8"?>
<svg width="83px" height="70px" viewBox="0 0 83 70" version="1.1" xmlns="http://www.w3.org/2000/svg" xmlns:xlink="http://www.w3.org/1999/xlink">
    <!-- Generator: Sketch 55.2 (78181) - https://sketchapp.com -->
    <title>Path_1</title>
    <desc>Created with Sketch.</desc>
    <g id="Home-v3" stroke="none" stroke-width="1" fill="none" fill-rule="evenodd">
        <g id="Desktop-Copy-8" transform="translate(-100.000000, -40.000000)" fill="#0A7285" fill-rule="nonzero">
            <path d="M121.222785,109.999823 C129.82323,109.932462 136.762329,102.985438 136.772152,94.4326983 L136.772152,40 L121.222785,40 L121.222785,109.999823 Z M115.549367,109.999912 L115.549367,78.3431867 L100,78.3431867 L100,94.641653 C100.013909,98.7287549 101.65996,102.642963 104.576038,105.523183 C107.492115,108.403404 111.439344,110.013701 115.549367,109.999912 Z M146.227848,109.999823 L161.777215,109.999823 L161.777215,40 L146.227848,40 L146.227848,109.999823 Z M167.450633,109.999823 C175.995086,109.99432 182.936539,103.13822 183,94.641653 L183,55.5671249 C182.990177,47.014385 176.051078,40.0673614 167.450633,40 L167.450633,109.999823 Z" id="Path_1"></path>
        </g>
    </g>
</svg>