<?xml version="1.0" encoding="UTF-8"?>
<svg width="615px" height="91px" viewBox="0 0 615 91" version="1.1" xmlns="http://www.w3.org/2000/svg" xmlns:xlink="http://www.w3.org/1999/xlink">
    <!-- Generator: Sketch 55.2 (78181) - https://sketchapp.com -->
    <title>MAMMOTH</title>
    <desc>Created with Sketch.</desc>
    <g id="Home-v3" stroke="none" stroke-width="1" fill="none" fill-rule="evenodd">
        <path d="M0,89 L0,1 L20.8685714,1 L44,38.2114286 L67.1314286,1 L88,1 L88,89 L68.7657143,89 L68.7657143,31.5485714 L44,69.1371429 L43.4971429,69.1371429 L18.9828571,31.9257143 L18.9828571,89 L0,89 Z M95,90 L132.601078,1 L150.398922,1 L188,90 L167.820755,90 L159.799191,70.1801418 L122.699461,70.1801418 L114.677898,90 L95,90 Z M130,52 L154,52 L142,23 L130,52 Z M195,89 L195,1 L215.868571,1 L239,38.2114286 L262.131429,1 L283,1 L283,89 L263.765714,89 L263.765714,31.5485714 L239,69.1371429 L238.497143,69.1371429 L213.982857,31.9257143 L213.982857,89 L195,89 Z M264,89 L264,1 L284.868571,1 L308,38.2114286 L331.131429,1 L352,1 L352,89 L332.765714,89 L332.765714,31.5485714 L308,69.1371429 L307.497143,69.1371429 L282.982857,31.9257143 L282.982857,89 L264,89 Z M408.375,91 C381.375,91 362,70.7638122 362,45.7513812 L362,45.5 C362,20.4875691 381.625,0 408.625,0 C435.625,0 455,20.2361878 455,45.2486188 L455,45.5 C455,70.5124309 435.375,91 408.375,91 Z M409.625592,72 C425.199052,72 436,59.75 436,44.75 L436,44.5 C436,29.5 424.947867,17 409.374408,17 C393.800948,17 383,29.25 383,44.25 L383,44.5 C383,59.5 394.052133,72 409.625592,72 Z M486.808621,89 L486.808621,18.8514286 L460,18.8514286 L460,1 L533,1 L533,18.8514286 L506.191379,18.8514286 L506.191379,89 L486.808621,89 Z M540,89 L540,1 L559.510135,1 L559.510135,35.8228571 L595.489865,35.8228571 L595.489865,1 L615,1 L615,89 L595.489865,89 L595.489865,53.6742857 L559.510135,53.6742857 L559.510135,89 L540,89 Z" id="MAMMOTH" fill="#000000" fill-rule="nonzero"></path>
    </g>
</svg>