<?xml version="1.0" encoding="UTF-8"?>
<svg width="20px" height="16px" viewBox="0 0 20 16" version="1.1" xmlns="http://www.w3.org/2000/svg" xmlns:xlink="http://www.w3.org/1999/xlink">
    <!-- Generator: Sketch 55.2 (78181) - https://sketchapp.com -->
    <title>Twitter_Logo_Blue</title>
    <desc>Created with Sketch.</desc>
    <g id="Home-v3" stroke="none" stroke-width="1" fill="none" fill-rule="evenodd">
        <g id="Desktop-Copy-8" transform="translate(-15.000000, -1762.000000)" fill="#0A7285">
            <g id="Group-2">
                <g id="Group-3" transform="translate(7.000000, 1691.000000)">
                    <path d="M14.28984,87 C21.83736,87 25.96472,80.8449242 25.96472,75.5077321 C25.96472,75.3328313 25.96112,75.158718 25.95296,74.9855496 C26.75408,74.4154879 27.45056,73.704151 28,72.8942208 C27.26472,73.215673 26.47352,73.4323893 25.64352,73.5300377 C26.49072,73.0301411 27.14112,72.2388743 27.44784,71.2957801 C26.65488,71.7584286 25.77704,72.0949217 24.8424,72.2761224 C24.09368,71.4910768 23.02728,71 21.84728,71 C19.58104,71 17.74336,72.808936 17.74336,75.0388625 C17.74336,75.3559047 17.77944,75.6640483 17.84976,75.9598283 C14.4396,75.7910699 11.4156,74.1837305 9.392,71.7397651 C9.03928,72.3365227 8.83632,73.0301411 8.83632,73.7698274 C8.83632,75.171239 9.56072,76.4083021 10.66224,77.1320025 C9.98928,77.1116066 9.35688,76.9295396 8.80384,76.6266722 C8.80288,76.6435244 8.80288,76.6604554 8.80288,76.6781738 C8.80288,78.6346061 10.21752,80.2676963 12.09488,80.6380514 C11.75032,80.7303448 11.3876,80.780114 11.0132,80.780114 C10.74888,80.780114 10.49176,80.7543632 10.24184,80.7072715 C10.76424,82.3120121 12.27896,83.4797764 14.07512,83.5126933 C12.67048,84.5960389 10.90136,85.2416206 8.97888,85.2416206 C8.64776,85.2416206 8.3212,85.223036 8,85.1857091 C9.81608,86.3312662 11.97224,87 14.28984,87" id="Twitter_Logo_Blue"></path>
                </g>
            </g>
        </g>
    </g>
</svg>