<?xml version="1.0" encoding="UTF-8"?>
<svg width="20px" height="20px" viewBox="0 0 20 20" version="1.1" xmlns="http://www.w3.org/2000/svg" xmlns:xlink="http://www.w3.org/1999/xlink">
    <!-- Generator: Sketch 55.2 (78181) - https://sketchapp.com -->
    <title>Shape</title>
    <desc>Created with Sketch.</desc>
    <g id="Home-v3" stroke="none" stroke-width="1" fill="none" fill-rule="evenodd">
        <g id="Desktop-Copy-8" transform="translate(-15.000000, -1726.000000)" fill="#0A7285" fill-rule="nonzero">
            <g id="Group-2">
                <g id="Group-3" transform="translate(7.000000, 1691.000000)">
                    <path d="M27.7968803,42.9869379 C27.6656344,42.344458 27.469078,41.7116653 27.214086,41.1073091 C26.9631564,40.5138902 26.6531661,39.942658 26.2919274,39.4086122 C25.9341261,38.8792538 25.523514,38.3814568 25.0716531,37.929596 C24.6191673,37.4767976 24.1216828,37.0658729 23.5920119,36.7086966 C23.0579661,36.3468329 22.486109,36.0371551 21.8933151,35.7859129 C21.2886465,35.5315459 20.6564788,35.3340521 20.0136864,35.2037436 C19.3552695,35.0684354 18.6774783,35 18.0006244,35 C17.3228332,35 16.6450419,35.0687479 15.9863125,35.2037436 C15.3438326,35.3340521 14.7113524,35.5315459 14.1073088,35.7859129 C13.5148274,36.0371551 12.9426578,36.3468329 12.4082995,36.7086966 C11.8789411,37.0658729 11.3811442,37.4764851 10.9286583,37.9292835 C10.4767975,38.3811443 10.0661853,38.8789413 9.70869651,39.4082997 C9.34745782,39.9423456 9.03715503,40.5135777 8.78653788,41.1069967 C8.53092088,41.7113528 8.33467702,42.344458 8.20311864,42.9866254 C8.06843536,43.6437924 8,44.3218962 8,44.9990625 C8,45.6777913 8.06843536,46.3558951 8.20311864,47.0139996 C8.33467702,47.6564795 8.53092088,48.2889597 8.78653788,48.8930033 C9.03715503,49.4854848 9.34745782,50.0582794 9.70869651,50.5923252 C10.0661853,51.1216837 10.4767975,51.6188557 10.9286583,52.0713415 C11.3808317,52.5232024 11.8786286,52.9335021 12.407987,53.2913034 C12.9426578,53.6522296 13.5145149,53.9628449 14.1069963,54.2131496 C14.7110399,54.4693916 15.3435201,54.664698 15.986,54.7965689 C16.6450419,54.9325021 17.3225207,55 18.000312,55 C18.6774783,55 19.354957,54.9321896 20.0130614,54.7965689 C20.6561663,54.664698 21.2886465,54.4693916 21.8926901,54.2131496 C22.4851716,53.9628449 23.0576536,53.6522296 23.5916994,53.2913034 C24.1207454,52.9331896 24.6188548,52.5232024 25.0710281,52.0713415 C25.522889,51.6188557 25.9341261,51.1216837 26.2913024,50.5923252 C26.6522286,50.0582794 26.9628439,49.4857973 27.2131486,48.8930033 C27.4684531,48.2889597 27.6653219,47.6564795 27.7965678,47.0139996 C27.9315636,46.3558951 28,45.6781038 28,44.9990625 C28.0003114,44.3222087 27.9321886,43.6441049 27.7968803,42.9869379 Z M18.0006244,36.4596419 C20.1627443,36.4596419 22.1358075,37.2655542 23.6407604,38.5905128 C23.6198235,38.6236368 22.4032991,40.4748289 19.17965,41.6829162 C17.7203207,39.0008125 16.1163084,36.8696291 15.987875,36.7005719 C16.6334797,36.5443267 17.3065837,36.4596419 18.0006244,36.4596419 Z M15.9550635,36.7077591 C15.954751,36.7086966 15.953501,36.7093216 15.953501,36.7093216 C15.953501,36.7093216 15.9435013,36.7118215 15.9278768,36.7149464 C15.9366266,36.7124465 15.9460013,36.710884 15.9550635,36.7077591 Z M14.356676,37.2758664 C14.47011,37.4283616 16.0494355,39.5695447 17.5278267,42.1966501 C13.4270176,43.2863036 9.86837901,43.2434924 9.64276108,43.23943 C10.1980562,40.5942002 11.9748756,38.4011437 14.356676,37.2758664 Z M11.6483233,50.7073216 C10.2883659,49.1939314 9.46057928,47.1936814 9.46057928,44.9990625 C9.46057928,44.9081279 9.46464165,44.8190682 9.46776655,44.7296959 C9.61807435,44.7328208 13.8382547,44.8284429 18.2353046,43.512859 C18.4802969,43.991594 18.7140396,44.4784538 18.9287204,44.9643761 C18.8152864,44.9959376 18.7037274,45.0299991 18.5918559,45.0662479 C13.9826252,46.5558889 11.6451984,50.7029468 11.6451984,50.7029468 C11.6451984,50.7029468 11.6476983,50.7054467 11.6483233,50.7073216 Z M18.0006244,53.5403581 C16.0200614,53.5403581 14.2016809,52.8603794 12.7529762,51.7294772 C12.7526637,51.7301022 12.7514138,51.7326021 12.7514138,51.7326021 C12.7514138,51.7326021 12.6726662,51.6738539 12.5601698,51.5829193 C12.6223553,51.6341677 12.6892282,51.6797913 12.7529762,51.7294772 C12.7842252,51.6616668 14.4372985,48.1449017 19.4533915,46.3977688 C19.4721409,46.390894 19.4912028,46.3849567 19.5102647,46.3796444 C20.7121021,49.5023593 21.2083365,52.1175901 21.3345826,52.8641292 C20.3105521,53.2994281 19.1830874,53.5403581 18.0006244,53.5403581 Z M22.7723501,52.0835286 C22.6857903,51.5679198 22.2308045,49.0614356 21.1102146,45.9834068 C23.8673158,45.5421706 26.2563035,46.2983969 26.432548,46.3558951 C26.0525599,48.7358208 24.6901025,50.7882566 22.7723501,52.0835286 Z M20.5896059,44.6350114 C20.5296078,44.488766 20.4683597,44.3418956 20.4055492,44.1940877 C20.2277422,43.7762882 20.0361857,43.3622387 19.8377544,42.9553764 C23.2104614,41.5788569 24.5797935,39.5989188 24.5957305,39.5751695 C25.793818,41.0298116 26.5181703,42.888191 26.5378572,44.9146902 C26.4141111,44.887816 23.523889,44.2659604 20.5896059,44.6350114 Z" id="Shape"></path>
                </g>
            </g>
        </g>
    </g>
</svg>