<?xml version="1.0" encoding="UTF-8"?>
<svg width="20px" height="20px" viewBox="0 0 20 20" version="1.1" xmlns="http://www.w3.org/2000/svg" xmlns:xlink="http://www.w3.org/1999/xlink">
    <!-- Generator: Sketch 55.2 (78181) - https://sketchapp.com -->
    <title>Fill 4</title>
    <desc>Created with Sketch.</desc>
    <g id="Home-v3" stroke="none" stroke-width="1" fill="none" fill-rule="evenodd">
        <g id="Desktop-Copy-8" transform="translate(-15.000000, -1691.000000)" fill="#0A7285">
            <g id="Group-2">
                <g id="Group-3" transform="translate(7.000000, 1691.000000)">
                    <path d="M17.9990792,0 C12.4777311,0 8,4.5904205 8,10.2533868 C8,14.7833822 10.8650358,18.6260419 14.8387612,19.9818304 C15.3390835,20.0762447 15.5214095,19.7596422 15.5214095,19.4877292 C15.5214095,19.2447699 15.512815,18.5996059 15.5079039,17.7442129 C12.7263575,18.3635703 12.1394763,16.3695415 12.1394763,16.3695415 C11.6845821,15.1849574 11.028945,14.8696139 11.028945,14.8696139 C10.1209982,14.2338913 11.097701,14.2464799 11.097701,14.2464799 C12.101415,14.3188641 12.6293625,15.30329 12.6293625,15.30329 C13.5213481,16.869937 14.9701341,16.417378 15.5398263,16.1549064 C15.6306823,15.4927479 15.889131,15.0408184 16.174591,14.784641 C13.9541422,14.525946 11.6195095,13.6460053 11.6195095,9.7171139 C11.6195095,8.59799041 12.0093312,7.68217225 12.649007,6.96588286 C12.5458731,6.7065584 12.2027073,5.66359573 12.7472298,4.25241751 C12.7472298,4.25241751 13.5864207,3.97672792 15.4968538,5.30356275 C16.2943,5.07570971 17.150066,4.96241262 18.0003069,4.95800662 C18.849934,4.96241262 19.7050861,5.07570971 20.5037601,5.30356275 C22.4129654,3.97672792 23.2509285,4.25241751 23.2509285,4.25241751 C23.7966788,5.66359573 23.453513,6.7065584 23.350993,6.96588286 C23.9918966,7.68217225 24.3786488,8.59799041 24.3786488,9.7171139 C24.3786488,13.6560761 22.0403327,14.5227989 19.8131312,14.7764585 C20.1716443,15.0930609 20.4914822,15.7187126 20.4914822,16.6754436 C20.4914822,18.045709 20.4792044,19.1516145 20.4792044,19.4877292 C20.4792044,19.7621599 20.6596888,20.0812801 21.1667639,19.981201 C25.1374198,18.6222653 28,14.7821233 28,10.2533868 C28,4.5904205 23.5222689,0 17.9990792,0" id="Fill-4"></path>
                </g>
            </g>
        </g>
    </g>
</svg>