<?xml version="1.0" encoding="UTF-8"?>
<svg width="181px" height="20px" viewBox="0 0 181 20" version="1.1" xmlns="http://www.w3.org/2000/svg" xmlns:xlink="http://www.w3.org/1999/xlink">
    <!-- Generator: Sketch 55.2 (78181) - https://sketchapp.com -->
    <title>Path Copy</title>
    <desc>Created with Sketch.</desc>
    <g id="Home" stroke="none" stroke-width="1" fill="none" fill-rule="evenodd">
        <path d="M178.309967,1.46388175 L162.636046,16.3860112 C162.249863,16.7536713 161.643138,16.7536593 161.256969,16.3859838 L144.738116,0.658197344 C144.351873,0.290450887 143.745006,0.290519642 143.358846,0.658353608 L126.85172,16.3821068 C126.465343,16.7501478 125.858063,16.7499809 125.471889,16.3817275 L108.982782,0.657838645 C108.596559,0.289539679 107.989189,0.289424575 107.602826,0.657577127 L91.100639,16.3820014 C90.7143299,16.7501033 90.1070603,16.7500458 89.7208209,16.3818706 L73.2251673,0.657707822 C72.8388749,0.289482092 72.2315044,0.289482092 71.8452121,0.657707822 L55.3496893,16.3817459 C54.9633969,16.7499716 54.3560264,16.7499716 53.9697341,16.3817459 L37.4743859,0.657874268 C37.0880228,0.289581093 36.4805178,0.289657866 36.0942478,0.658048683 L19.6076579,16.3815268 C19.2214396,16.7498683 18.614033,16.7500012 18.2276536,16.3818288 L2.57221741,1.46411156 C2.27295994,1.17895577 1.82909524,1.10731535 1.4553214,1.2838429 L1.0377997,1.48103187 C0.644596076,1.66673579 0.476384334,2.13603308 0.662088257,2.5292367 C0.703476615,2.6168711 0.760688439,2.69611129 0.83084726,2.76297327 L18.2276206,19.3422532 C18.6140064,19.7104823 19.2214733,19.7103567 19.6077068,19.3419679 L36.0942156,3.61716681 C36.4804941,3.24873507 37.0880465,3.24865829 37.4744181,3.61699238 L53.9697019,19.3422029 C54.3560028,19.7104696 54.9634206,19.7104696 55.3497215,19.3422029 L71.8451799,3.61682591 C72.2314808,3.24855927 72.8388986,3.24855927 73.2251995,3.61682591 L89.7207887,19.3423277 C90.1070366,19.7105438 90.7143536,19.7106013 91.1006712,19.3424584 L107.602794,3.61669521 C107.989165,3.24850175 108.596583,3.24861686 108.982814,3.61695674 L125.471826,19.3421553 C125.858021,19.7104614 126.465372,19.7106149 126.851754,19.3425039 L143.358905,3.61592633 C143.745032,3.24805801 144.351898,3.24793528 144.738174,3.61564738 L161.256966,19.3405744 C161.643145,19.7081941 162.249827,19.7081765 162.635985,19.3405345 L180.049617,2.76185154 C180.364253,2.46230186 180.376483,1.96440611 180.076933,1.64977026 C180.010157,1.57963103 179.931003,1.52242577 179.843452,1.48103187 L179.426924,1.28409754 C179.053231,1.10741587 178.609345,1.17886334 178.309967,1.46388175 Z" id="Path-Copy" fill="#0A7285" fill-rule="nonzero" transform="translate(90.440061, 10.000000) scale(1, -1) translate(-90.440061, -10.000000) "></path>
    </g>
</svg>