<?xml version="1.0" encoding="UTF-8"?>
<svg width="583px" height="614px" viewBox="0 0 583 614" version="1.1" xmlns="http://www.w3.org/2000/svg" xmlns:xlink="http://www.w3.org/1999/xlink">
    <!-- Generator: Sketch 55.2 (78181) - https://sketchapp.com -->
    <title>sherlayer</title>
    <desc>Created with Sketch.</desc>
    <g id="Page-1" stroke="none" stroke-width="1" fill="none" fill-rule="evenodd">
        <g id="sherlayer" transform="translate(0.000000, 1.000000)">
            <path d="M169,62 C187.863849,132.949152 319.910796,246.341101 387.820655,361 C412.972454,244.440678 213.015648,132.949152 169,62 Z" id="Shape" fill="#0069AA" fill-rule="nonzero"></path>
            <path d="M421.219574,440 C438.936936,516.39781 395.909057,575.116789 332,613 C422.485101,607.948905 534.484139,518.923357 421.219574,440" id="Shape" fill="#8CD2F4" fill-rule="nonzero"></path>
            <path d="M169,62 C187.863849,132.949152 319.910796,246.341101 387.820655,361 C412.972454,244.440678 213.015648,132.949152 169,62 Z" id="Shape" stroke="#0069AA" stroke-width="3"></path>
            <path d="M232.723974,0.630065365 C231.467415,0.630065365 229.582578,0.630065365 227.697741,0 C17.22422,50.4052288 605.921798,291.090196 538.067647,482 C769.902659,144.284967 18.4807784,49.7751634 232.723974,0.630065365 Z" id="Shape" fill="#0096D6" fill-rule="nonzero"></path>
            <path d="M229.494436,0.630459117 C227.605686,0.630459117 225.087352,0.630459117 223.198601,0 C174.720669,11.3482643 162.128999,34.0447928 170.313584,63.6763717 C213.754848,134.287793 413.96241,245.2486 388.779068,361.25308 C390.667819,364.405375 392.556569,366.927212 393.815736,370.079507 C463.699508,412.320268 511.547856,467.800672 473.772845,557.325868 C473.143261,559.217245 471.884093,561.108622 471.25451,563 C475.661595,558.586786 480.06868,554.173572 484.475765,549.760357 C507.770354,526.43337 526.028277,504.367301 540.508698,482.93169 C608.503718,291.272116 18.5839553,51.0671893 229.494436,0.630459117 Z" id="Shape" fill="#0076C0" fill-rule="nonzero"></path>
            <path d="M168.626141,63.4906304 C160.482872,33.3168655 173.637383,10.6865417 221.244181,0 C219.991369,0 218.738559,0 217.485749,0 C80.9294065,16.9727427 67.1484911,184.18569 178.648623,262.763203 C227.508233,297.337308 315.831372,324.996593 384.735948,365.228279 C387.241569,366.48552 389.120785,367.74276 391,369 C389.74719,365.8569 387.867975,363.342419 385.988759,360.199319 C318.963398,246.41908 187.418298,133.896081 168.626141,63.4906304 Z" id="Shape" stroke="#005288" stroke-width="2" fill="#005288" fill-rule="nonzero"></path>
            <path d="M396.574944,376.423462 C395.316608,373.90558 394.058272,372.017168 392.799935,369.499285 C390.912432,368.240344 388.39576,366.981402 386.508256,365.72246 C317.299778,326.065809 229.216259,297.739628 179.511987,263.118741 C68.149254,184.434907 81.9909497,16.9957081 219.149571,0 C210.970388,0 203.420371,0 195.870355,0.629470664 C195.241188,0.629470664 194.61202,0.629470664 193.982852,0.629470664 L193.982852,0.629470664 C193.982852,0.629470664 134.211893,4.4062947 71.9242618,72.3891274 C65.6325819,78.683834 59.9700701,85.6080114 54.3075581,91.9027182 C53.6783902,93.1616595 53.0492222,93.7911302 51.7908862,94.4206009 C-6.09256873,168.69814 -24.3384404,266.266095 43.6117023,313.476395 C115.336853,363.834048 329.25397,375.164521 423,440 C417.337488,419.856939 408.529136,397.825465 396.574944,376.423462 Z" id="Shape" fill="#54BCEB" fill-rule="nonzero"></path>
        </g>
    </g>
</svg>